<?xml version="1.0" encoding="UTF-8" standalone="no"?>
<!DOCTYPE svg PUBLIC "-//W3C//DTD SVG 1.1//EN" "http://www.w3.org/Graphics/SVG/1.1/DTD/svg11.dtd">
<svg width="100%" height="100%" viewBox="0 0 563 298" version="1.1" xmlns="http://www.w3.org/2000/svg" xmlns:xlink="http://www.w3.org/1999/xlink" xml:space="preserve" xmlns:serif="http://www.serif.com/" style="fill-rule:evenodd;clip-rule:evenodd;stroke-linejoin:round;stroke-miterlimit:2;">
    <g id="Artboard1" transform="matrix(1,0,0,0.581917,-42.4436,-16.7836)">
        <rect x="42.444" y="28.842" width="562.735" height="511.158" style="fill:none;"/>
        <g transform="matrix(0.654345,0,0,1.12446,-22.3168,-195.133)">
            <g transform="matrix(1,0,0,1,3.33591,-45.0347)">
                <g transform="matrix(400,0,0,400,152.201,626.525)">
                    <path d="M0.46,-0.707C0.547,-0.707 0.61,-0.695 0.647,-0.671C0.684,-0.646 0.702,-0.613 0.702,-0.572C0.702,-0.537 0.69,-0.504 0.666,-0.474C0.642,-0.444 0.607,-0.42 0.561,-0.401C0.514,-0.382 0.457,-0.372 0.39,-0.37C0.475,-0.371 0.54,-0.358 0.587,-0.329C0.633,-0.3 0.656,-0.264 0.656,-0.22C0.656,-0.185 0.648,-0.154 0.632,-0.127C0.616,-0.1 0.593,-0.077 0.563,-0.058C0.533,-0.039 0.496,-0.024 0.453,-0.015C0.41,-0.005 0.361,-0 0.306,-0C0.288,-0 0.266,-0.001 0.239,-0.002C0.212,-0.003 0.176,-0.003 0.129,-0.003C0.102,-0.003 0.071,-0.003 0.037,-0.003C0.002,-0.002 -0.027,-0.001 -0.048,-0L-0.044,-0.02C-0.021,-0.021 -0.004,-0.024 0.009,-0.028C0.022,-0.032 0.032,-0.04 0.039,-0.052C0.046,-0.064 0.053,-0.082 0.059,-0.106L0.191,-0.602C0.196,-0.623 0.199,-0.639 0.2,-0.652C0.2,-0.664 0.195,-0.673 0.186,-0.679C0.176,-0.684 0.158,-0.687 0.132,-0.688L0.137,-0.708C0.151,-0.707 0.168,-0.707 0.189,-0.707C0.21,-0.706 0.231,-0.706 0.253,-0.706C0.275,-0.705 0.294,-0.705 0.311,-0.705C0.347,-0.705 0.376,-0.705 0.397,-0.706C0.418,-0.707 0.439,-0.707 0.46,-0.707ZM0.277,-0.359L0.281,-0.376L0.348,-0.376C0.383,-0.376 0.413,-0.387 0.436,-0.409C0.459,-0.431 0.477,-0.46 0.489,-0.495C0.5,-0.53 0.506,-0.566 0.506,-0.603C0.506,-0.626 0.502,-0.646 0.496,-0.663C0.489,-0.68 0.473,-0.688 0.45,-0.688C0.436,-0.688 0.426,-0.683 0.419,-0.674C0.411,-0.665 0.404,-0.646 0.397,-0.617L0.262,-0.106C0.259,-0.095 0.257,-0.083 0.255,-0.07C0.253,-0.057 0.255,-0.046 0.26,-0.037C0.265,-0.028 0.277,-0.023 0.294,-0.023C0.323,-0.023 0.349,-0.034 0.372,-0.055C0.394,-0.076 0.411,-0.104 0.425,-0.137C0.438,-0.17 0.444,-0.205 0.444,-0.24C0.444,-0.271 0.437,-0.299 0.424,-0.323C0.411,-0.347 0.385,-0.359 0.348,-0.359L0.277,-0.359Z" style="fill-rule:nonzero;"/>
                </g>
            </g>
            <g transform="matrix(1,0,0,1,-125.801,150.95)">
                <g transform="matrix(400,0,0,400,692.201,430.541)">
                    <path d="M0.79,-0.886C0.82,-0.886 0.844,-0.877 0.862,-0.86C0.879,-0.842 0.888,-0.822 0.888,-0.8C0.888,-0.775 0.881,-0.754 0.867,-0.736C0.852,-0.717 0.831,-0.702 0.804,-0.691C0.782,-0.682 0.756,-0.676 0.728,-0.671C0.699,-0.666 0.666,-0.664 0.631,-0.664C0.602,-0.664 0.568,-0.666 0.527,-0.669C0.486,-0.672 0.444,-0.676 0.402,-0.679C0.36,-0.682 0.323,-0.684 0.29,-0.684C0.266,-0.684 0.244,-0.683 0.225,-0.68C0.205,-0.677 0.189,-0.673 0.176,-0.667C0.201,-0.664 0.223,-0.654 0.239,-0.636C0.257,-0.62 0.265,-0.597 0.265,-0.57C0.265,-0.541 0.256,-0.518 0.237,-0.499C0.218,-0.48 0.195,-0.47 0.168,-0.47C0.139,-0.47 0.117,-0.48 0.102,-0.5C0.086,-0.519 0.078,-0.542 0.078,-0.567C0.078,-0.585 0.083,-0.605 0.093,-0.625C0.103,-0.647 0.122,-0.664 0.151,-0.678C0.167,-0.686 0.184,-0.692 0.201,-0.695C0.218,-0.698 0.234,-0.7 0.249,-0.701C0.264,-0.702 0.276,-0.702 0.285,-0.702C0.327,-0.702 0.369,-0.701 0.411,-0.698C0.453,-0.695 0.494,-0.692 0.533,-0.689C0.572,-0.686 0.608,-0.684 0.641,-0.684C0.664,-0.684 0.684,-0.685 0.7,-0.687C0.715,-0.689 0.729,-0.691 0.742,-0.694L0.739,-0.685C0.727,-0.694 0.716,-0.708 0.706,-0.725C0.696,-0.742 0.691,-0.763 0.691,-0.786C0.691,-0.817 0.7,-0.841 0.719,-0.859C0.738,-0.877 0.761,-0.886 0.79,-0.886ZM0.406,-0.687C0.406,-0.687 0.413,-0.687 0.426,-0.686C0.439,-0.685 0.456,-0.683 0.475,-0.682C0.495,-0.681 0.515,-0.679 0.535,-0.678C0.554,-0.677 0.571,-0.676 0.584,-0.675C0.597,-0.674 0.604,-0.673 0.604,-0.673L0.457,-0.116C0.448,-0.081 0.448,-0.057 0.459,-0.044C0.469,-0.031 0.493,-0.023 0.532,-0.02L0.528,-0C0.505,-0.001 0.474,-0.002 0.437,-0.003C0.399,-0.003 0.36,-0.003 0.319,-0.003C0.28,-0.003 0.243,-0.003 0.208,-0.003C0.173,-0.002 0.144,-0.001 0.123,-0L0.127,-0.02C0.155,-0.021 0.177,-0.025 0.194,-0.031C0.21,-0.036 0.223,-0.046 0.232,-0.059C0.241,-0.073 0.248,-0.092 0.254,-0.116L0.406,-0.687Z" style="fill-rule:nonzero;"/>
                </g>
            </g>
            <g transform="matrix(400,0,0,400,341.308,604.223)">
                <path d="M0.58,-0.209C0.573,-0.192 0.559,-0.175 0.538,-0.158C0.517,-0.14 0.488,-0.131 0.453,-0.131C0.432,-0.131 0.412,-0.135 0.393,-0.143C0.373,-0.152 0.357,-0.165 0.344,-0.184C0.331,-0.202 0.325,-0.226 0.325,-0.255C0.325,-0.296 0.34,-0.333 0.37,-0.365C0.399,-0.396 0.445,-0.421 0.506,-0.44C0.535,-0.449 0.565,-0.458 0.595,-0.467C0.624,-0.476 0.654,-0.485 0.683,-0.494C0.712,-0.502 0.742,-0.511 0.771,-0.52C0.79,-0.526 0.809,-0.533 0.83,-0.54C0.851,-0.547 0.868,-0.558 0.883,-0.571C0.898,-0.584 0.905,-0.601 0.905,-0.624C0.905,-0.65 0.889,-0.683 0.867,-0.703C0.841,-0.728 0.768,-0.735 0.739,-0.722C0.718,-0.712 0.702,-0.671 0.695,-0.669C0.734,-0.654 0.648,-0.682 0.664,-0.684C0.68,-0.685 0.722,-0.734 0.741,-0.739C0.758,-0.745 0.79,-0.749 0.813,-0.743C0.84,-0.737 0.88,-0.726 0.9,-0.7C0.921,-0.672 0.941,-0.633 0.941,-0.576C0.941,-0.511 0.921,-0.462 0.879,-0.429C0.839,-0.395 0.781,-0.367 0.706,-0.344C0.681,-0.337 0.657,-0.329 0.631,-0.322C0.607,-0.314 0.582,-0.306 0.557,-0.299C0.532,-0.292 0.506,-0.284 0.481,-0.276C0.461,-0.27 0.445,-0.263 0.432,-0.256C0.419,-0.249 0.41,-0.24 0.404,-0.231C0.398,-0.222 0.395,-0.211 0.395,-0.2C0.395,-0.181 0.402,-0.169 0.415,-0.162C0.428,-0.155 0.442,-0.152 0.457,-0.152C0.476,-0.152 0.493,-0.156 0.507,-0.163C0.522,-0.17 0.534,-0.178 0.543,-0.188C0.552,-0.198 0.559,-0.207 0.563,-0.216L0.58,-0.209ZM0.476,-0.578C0.49,-0.578 0.502,-0.582 0.511,-0.591C0.521,-0.6 0.526,-0.61 0.526,-0.623C0.526,-0.634 0.521,-0.644 0.511,-0.651C0.502,-0.658 0.488,-0.662 0.471,-0.662C0.45,-0.662 0.429,-0.656 0.408,-0.645C0.388,-0.634 0.372,-0.618 0.359,-0.597C0.345,-0.576 0.339,-0.552 0.339,-0.524C0.339,-0.519 0.339,-0.515 0.34,-0.509C0.341,-0.504 0.341,-0.499 0.342,-0.494C0.354,-0.496 0.366,-0.498 0.378,-0.499C0.39,-0.5 0.399,-0.5 0.405,-0.5C0.429,-0.5 0.441,-0.493 0.441,-0.479C0.441,-0.472 0.438,-0.466 0.431,-0.463C0.424,-0.46 0.417,-0.458 0.41,-0.458C0.397,-0.458 0.385,-0.461 0.372,-0.467C0.359,-0.472 0.348,-0.477 0.341,-0.48C0.312,-0.467 0.288,-0.441 0.268,-0.401C0.248,-0.36 0.238,-0.316 0.238,-0.267C0.238,-0.226 0.246,-0.191 0.262,-0.164C0.278,-0.136 0.302,-0.115 0.333,-0.101C0.364,-0.087 0.403,-0.08 0.448,-0.08C0.489,-0.08 0.53,-0.086 0.571,-0.099C0.611,-0.111 0.644,-0.131 0.671,-0.158C0.698,-0.185 0.711,-0.221 0.711,-0.266C0.711,-0.291 0.705,-0.316 0.693,-0.339C0.681,-0.362 0.659,-0.381 0.626,-0.394L0.637,-0.405C0.668,-0.393 0.691,-0.374 0.708,-0.348C0.724,-0.322 0.732,-0.292 0.732,-0.259C0.732,-0.228 0.725,-0.197 0.71,-0.165C0.695,-0.133 0.672,-0.103 0.641,-0.077C0.61,-0.05 0.57,-0.028 0.522,-0.011C0.474,0.006 0.417,0.014 0.351,0.014C0.29,0.014 0.235,0.006 0.186,-0.011C0.136,-0.027 0.096,-0.052 0.067,-0.085C0.038,-0.118 0.023,-0.16 0.023,-0.211C0.023,-0.256 0.035,-0.298 0.059,-0.336C0.084,-0.373 0.119,-0.405 0.165,-0.432C0.21,-0.458 0.265,-0.477 0.328,-0.488C0.293,-0.497 0.267,-0.511 0.252,-0.529C0.236,-0.547 0.228,-0.566 0.228,-0.587C0.228,-0.613 0.237,-0.634 0.257,-0.652C0.276,-0.669 0.3,-0.681 0.329,-0.69C0.358,-0.698 0.389,-0.702 0.421,-0.702C0.466,-0.702 0.499,-0.695 0.519,-0.681C0.539,-0.666 0.549,-0.648 0.549,-0.626C0.549,-0.603 0.541,-0.587 0.525,-0.576C0.508,-0.565 0.492,-0.56 0.477,-0.56L0.476,-0.578Z" style="fill-rule:nonzero;"/>
            </g>
        </g>
    </g>
</svg>
